<svg width="20" height="20" viewBox="0 0 20 20" fill="none" xmlns="http://www.w3.org/2000/svg">
<path fill-rule="evenodd" clip-rule="evenodd" d="M2.97753 10L1.52197 2.70005L3.47753 2.30005L5.02197 10L3.47753 17.7L1.52197 17.3L2.97753 10ZM16.522 2.30005L18.4775 2.70005L17.022 10L18.4775 17.3L16.522 17.7L14.9775 10L16.522 2.30005ZM11 7H9V11H11V7ZM7.8335 13.8333C7.8335 15.0333 8.80016 15.9999 10.0002 15.9999C11.2002 15.9999 12.1668 15.0333 12.1668 13.8333H14.1668C14.1668 16.1333 12.3002 17.9999 10.0002 17.9999C7.70016 17.9999 5.8335 16.1333 5.8335 13.8333H7.8335Z" fill="#3D3D3D"/>
</svg>
