<svg width="20" height="20" viewBox="0 0 20 20" fill="none" xmlns="http://www.w3.org/2000/svg">
<path fill-rule="evenodd" clip-rule="evenodd" d="M10 1C14.9667 1 19 5.03333 19 10C19 12.4889 17.9889 14.7333 16.3667 16.3667L19 19H10C5.03333 19 1 14.9667 1 10C1 5.03333 5.03333 1 10 1ZM10 17H14.1667L13.3222 16.1556C13.9222 15.8333 14.4667 15.4222 14.9444 14.9444C16.2111 13.6778 17 11.9333 17 10C17 6.14444 13.8556 3 10 3C6.14444 3 3 6.14444 3 10C3 13.8556 6.14444 17 10 17ZM11.2447 10.0001C11.2447 10.6873 10.6876 11.2445 10.0003 11.2445C9.31302 11.2445 8.75586 10.6873 8.75586 10.0001C8.75586 9.31277 9.31302 8.75562 10.0003 8.75562C10.6876 8.75562 11.2447 9.31277 11.2447 10.0001ZM5.83331 11.2445C6.5206 11.2445 7.07775 10.6873 7.07775 10.0001C7.07775 9.31277 6.5206 8.75562 5.83331 8.75562C5.14602 8.75562 4.58887 9.31277 4.58887 10.0001C4.58887 10.6873 5.14602 11.2445 5.83331 11.2445ZM15.4112 10.0001C15.4112 10.6873 14.8541 11.2445 14.1668 11.2445C13.4795 11.2445 12.9224 10.6873 12.9224 10.0001C12.9224 9.31277 13.4795 8.75562 14.1668 8.75562C14.8541 8.75562 15.4112 9.31277 15.4112 10.0001Z" fill="#3D3D3D"/>
</svg>
