<svg width="49" height="48" viewBox="0 0 49 48" fill="none" xmlns="http://www.w3.org/2000/svg">
<ellipse cx="23.9974" cy="24.001" rx="18.9974" ry="19" fill="#00AB8E"/>
<mask id="mask0" mask-type="alpha" maskUnits="userSpaceOnUse" x="5" y="5" width="38" height="39">
<ellipse cx="23.9974" cy="24.001" rx="18.9974" ry="19" fill="#00AB8E"/>
</mask>
<g mask="url(#mask0)">
<path d="M35.995 26.4009H11.9983V43.8009H35.995V26.4009Z" fill="#F4A6D7"/>
<path d="M26.3962 43.8009L26.3962 26.4009H21.5962L21.5962 43.8009H26.3962Z" fill="white"/>
<path d="M35.995 26.4012H11.9983L16.7977 19.2012H31.1956L35.995 26.4012Z" fill="#3D3D3D"/>
<path d="M31.1961 19.2012H16.7981V26.4012H31.1961V19.2012Z" fill="#EF4B81"/>
</g>
<path d="M13.4384 17.6145L11.9186 16.0945L12.8518 13.2812L10.0388 14.2145L8.51905 12.6945L9.45226 9.8812L6.63931 10.8279L5.13286 9.30787L6.06606 6.49454L3.25312 7.42787L1.73333 5.90787L2.66653 3.09454L1.26673 3.5612L0.506836 1.29454L4.18632 0.0678711L5.70611 1.57454L4.77291 4.4012L7.58585 3.45454L9.10564 4.97454L8.1591 7.78787L10.972 6.85454L12.4918 8.37454L11.5586 11.1879L14.3716 10.2412L15.8914 11.7612L14.9448 14.5745L16.358 14.1079L17.1179 16.3879L13.4384 17.6145Z" fill="#EF4B81"/>
<path d="M20.4904 23.1211L19.2639 19.4411L20.7704 17.9211L23.5966 18.8545L22.6501 16.0411L24.1699 14.5211L26.9828 15.4545L26.0496 12.6411L27.5694 11.1345L30.3824 12.0678L29.4358 9.25448L30.9556 7.73448L33.7686 8.66781L33.302 7.26781L35.5816 6.50781L36.8081 10.1878L35.2884 11.7078L32.4754 10.7745L33.4086 13.5878L31.8888 15.1078L29.0759 14.1611L30.0224 16.9745L28.5026 18.4945L25.6897 17.5611L26.6229 20.3745L25.1031 21.8945L22.2902 20.9478L22.7568 22.3611L20.4904 23.1211Z" fill="#FAE053"/>
<path d="M19.1975 9.60078C20.5229 9.60078 21.5975 8.52626 21.5975 7.20078C21.5975 5.8753 20.5229 4.80078 19.1975 4.80078C17.872 4.80078 16.7975 5.8753 16.7975 7.20078C16.7975 8.52626 17.872 9.60078 19.1975 9.60078Z" fill="#FAE053"/>
<path d="M7.1998 22.801C8.52529 22.801 9.5998 21.7265 9.5998 20.401C9.5998 19.0755 8.52529 18.001 7.1998 18.001C5.87432 18.001 4.7998 19.0755 4.7998 20.401C4.7998 21.7265 5.87432 22.801 7.1998 22.801Z" fill="#FAE053"/>
<path d="M34.7954 24.0012C36.1209 24.0012 37.1954 22.9267 37.1954 21.6012C37.1954 20.2757 36.1209 19.2012 34.7954 19.2012C33.4699 19.2012 32.3954 20.2757 32.3954 21.6012C32.3954 22.9267 33.4699 24.0012 34.7954 24.0012Z" fill="white"/>
<path d="M48.0019 20.4008L27.6011 0L24.2073 3.39384L44.608 23.7946L48.0019 20.4008Z" fill="#F4A6D7"/>
<path d="M36.0983 15.2976L39.4921 11.9033L36.0983 8.509L32.7044 11.9033L36.0983 15.2976Z" fill="white"/>
<path d="M41.1946 10.2011L37.7946 6.80105L39.4879 5.10772C40.4212 4.17438 41.9412 4.17438 42.8879 5.10772C43.8212 6.04105 43.8212 7.56105 42.8879 8.50772L41.1946 10.2011Z" fill="#F4A6D7"/>
<path d="M37.795 9.20088C39.1205 9.20088 40.195 8.12636 40.195 6.80088C40.195 5.4754 39.1205 4.40088 37.795 4.40088C36.4695 4.40088 35.395 5.4754 35.395 6.80088C35.395 8.12636 36.4695 9.20088 37.795 9.20088Z" fill="#EF4B81"/>
<path d="M41.1944 12.6008C42.5199 12.6008 43.5944 11.5263 43.5944 10.2008C43.5944 8.8753 42.5199 7.80078 41.1944 7.80078C39.869 7.80078 38.7944 8.8753 38.7944 10.2008C38.7944 11.5263 39.869 12.6008 41.1944 12.6008Z" fill="#EF4B81"/>
<path d="M40.3411 7.65459C39.4078 6.72126 37.8878 6.72126 36.9411 7.65459L36.0878 8.50792L39.4878 11.9079L40.3411 11.0546C41.2744 10.1079 41.2744 8.58792 40.3411 7.65459Z" fill="#F4A6D7"/>
</svg>
