<svg width="20" height="20" viewBox="0 0 20 20" fill="none" xmlns="http://www.w3.org/2000/svg">
<path d="M17.5 10C17.5 5.85556 14.1444 2.5 10 2.5C5.85556 2.5 2.5 5.85556 2.5 10C2.5 14.1444 5.85556 17.5 10 17.5C11.3667 17.5 12.6444 17.1333 13.7556 16.4889C14.8556 17.1222 16.1444 17.5 17.5111 17.5V15.5C16.8 15.5 16.1222 15.3667 15.4889 15.1111C16.7333 13.7778 17.5 11.9778 17.5 10ZM4.5 10C4.5 6.96667 6.96667 4.5 10 4.5C13.0333 4.5 15.5 6.96667 15.5 10C15.5 11.5889 14.8222 13.0111 13.7444 14.0222C12.6667 13.0222 11.9889 11.5889 11.9889 10H10C10 11.9778 10.7667 13.7778 12.0222 15.1111C11.4 15.3556 10.7222 15.5 10 15.5C6.96667 15.5 4.5 13.0333 4.5 10Z" fill="#A8A8A8"/>
</svg>
