<svg width="48" height="48" viewBox="0 0 48 48" fill="none" xmlns="http://www.w3.org/2000/svg">
<circle cx="24" cy="24" r="19" fill="#F4A6D7"/>
<path fill-rule="evenodd" clip-rule="evenodd" d="M36.0001 22.7999H27.6001C27.6001 18.1599 31.3601 14.3999 36.0001 14.3999H39.6001H48.0001C48.0001 19.0399 44.2401 22.7999 39.6001 22.7999H36.0001Z" fill="#3A5DAE"/>
<path d="M13.1998 16.8C17.839 16.8 21.5998 13.0392 21.5998 8.4C21.5998 3.76081 17.839 0 13.1998 0C8.56061 0 4.7998 3.76081 4.7998 8.4C4.7998 13.0392 8.56061 16.8 13.1998 16.8Z" fill="#EF4B81"/>
<path fill-rule="evenodd" clip-rule="evenodd" d="M8.4 10.7999H16.8C16.8 6.1599 20.56 2.3999 25.2 2.3999H28.7998H28.8H37.1998C37.1998 7.03984 33.4399 10.7998 28.8 10.7999C28.7999 10.7999 28.7999 10.7999 28.7998 10.7999L25.2 10.7999C25.2 15.4399 21.44 19.1999 16.8 19.1999H8.4H0C0 14.5599 3.76 10.7999 8.4 10.7999Z" fill="#3A5DAE"/>
<mask id="mask0" mask-type="alpha" maskUnits="userSpaceOnUse" x="5" y="5" width="38" height="38">
<circle cx="24" cy="24" r="19" fill="#F4A6D7"/>
</mask>
<g mask="url(#mask0)">
<path d="M34.8002 25.5998V20.7998H31.2002V14.7998H16.8002V20.7998H13.2002V25.5998L7.2002 31.5998V43.1998H13.2002H34.8002H40.8002V31.5998L34.8002 25.5998Z" fill="#FAE053"/>
<path d="M28.8002 20.2002H25.8002V17.2002H22.2002V20.2002H19.2002V23.8002H22.2002V26.8002H25.8002V23.8002H28.8002V20.2002Z" fill="#EF4B81"/>
<path fill-rule="evenodd" clip-rule="evenodd" d="M19.1999 30.2002H14.3999V35.0002H19.1999V30.2002ZM21.6001 30.2002H26.4001V35.0002H21.6001V30.2002ZM28.7998 30.2002H33.5998V35.0002H28.7998V30.2002ZM14.3999 38.3999H33.5999V43.1999H14.3999V38.3999Z" fill="white"/>
</g>
</svg>
