<svg width="24" height="24" viewBox="0 0 24 24" fill="none" xmlns="http://www.w3.org/2000/svg">
<path fill-rule="evenodd" clip-rule="evenodd" d="M23.7714 7.02856L21.7714 11.8857L23.7142 16.8L18.7999 18.8L16.7999 23.6571L11.9428 21.6571L7.02851 23.6571L5.02851 18.7428L0.171371 16.7428L2.17137 11.8857L0.171371 6.97141L5.08566 4.97141L7.1428 0.114269L11.9999 2.11427L16.9142 0.114269L18.9142 5.02856L23.7714 7.02856ZM17.7714 17.7143L18.3428 17.4857L21.9428 16L20.4571 12.4571L20.2285 11.8857L20.4571 11.3143L21.9428 7.77141L18.3999 6.2857L17.8285 6.05713L17.5999 5.4857L16.1142 1.94284L12.5714 3.42856L11.9999 3.65713L11.4285 3.42856L7.88566 1.94284L6.39994 5.4857L6.17137 6.05713L5.59994 6.2857L2.05709 7.77141L3.5428 11.3143L3.77137 11.8857L3.5428 12.4571L2.05709 16L5.5428 17.4857L6.11423 17.7143L6.3428 18.2857L7.82851 21.8286L11.3714 20.3428L11.9428 20.1143L12.5142 20.3428L16.0571 21.8286L17.5428 18.2857L17.7714 17.7143ZM9.37132 12.0571C10.5142 12.0571 11.257 11.6 11.257 10.8571C11.257 10.1714 10.457 9.65714 9.37132 9.65714C8.22847 9.65714 7.48561 10.1143 7.48561 10.8571C7.48561 11.6 8.22847 12.0571 9.37132 12.0571ZM9.37132 10.2857C10.057 10.2857 10.5142 10.5143 10.5142 10.8571C10.5142 11.2571 10.057 11.4286 9.37132 11.4286C8.68561 11.4286 8.22847 11.2 8.22847 10.8571C8.22847 10.5143 8.68561 10.2857 9.37132 10.2857ZM6.97131 13.0856H8.97131V14.7999H9.71416V13.0856H11.7713V12.457H6.97131V13.0856ZM14.2285 12.9715H12.2285V12.4001H17.0285V12.9715H14.9714V14.8001H14.2285V12.9715ZM14.6284 10.8571C14.9713 11.4286 15.5999 11.8286 16.5713 12L16.857 11.3714C15.657 11.2 15.0284 10.5143 15.0284 9.88571V9.65714H14.2284V9.88571C14.2284 10.5143 13.5999 11.2 12.3999 11.3714L12.6856 12C13.657 11.8286 14.2856 11.4286 14.6284 10.8571Z" fill="#EF4B81"/>
</svg>
