<svg width="48" height="48" viewBox="0 0 48 48" fill="none" xmlns="http://www.w3.org/2000/svg">
<circle cx="24" cy="24" r="19" fill="#FAE053"/>
<mask id="mask0" mask-type="alpha" maskUnits="userSpaceOnUse" x="5" y="5" width="38" height="38">
<circle cx="24" cy="24" r="19" fill="#FAE053"/>
</mask>
<g mask="url(#mask0)">
<path d="M34.3998 49.9998C43.0154 49.9998 49.9998 43.0154 49.9998 34.3998C49.9998 25.7842 43.0154 18.7998 34.3998 18.7998C25.7842 18.7998 18.7998 25.7842 18.7998 34.3998C18.7998 43.0154 25.7842 49.9998 34.3998 49.9998Z" fill="#F4A6D7"/>
</g>
<path fill-rule="evenodd" clip-rule="evenodd" d="M15.6322 31.2C15.6214 31.2 15.6107 31.2 15.6 31.2C6.98436 31.2 0 24.2157 0 15.6C0 6.98436 6.98436 0 15.6 0C24.2157 0 31.2 6.98436 31.2 15.6C31.2 19.9078 29.4539 23.8078 26.6309 26.6309L31.2 31.2H15.6322Z" fill="#EF4B81"/>
<path d="M22.92 10.8133C21.3067 9.19994 18.68 9.19994 17.0533 10.8133L15.5867 12.2799L14.12 10.8133C12.5067 9.19994 9.88 9.19994 8.25334 10.8133C6.64 12.4266 6.64 15.0533 8.25334 16.6799L9.72 18.1466L15.5867 24.0133L21.4533 18.1466L22.92 16.6799C24.5467 15.0533 24.5467 12.4266 22.92 10.8133Z" fill="white"/>
</svg>
