<svg width="32" height="32" viewBox="0 0 32 32" fill="none" xmlns="http://www.w3.org/2000/svg">
<path fill-rule="evenodd" clip-rule="evenodd" d="M2.66669 16C2.66669 8.63335 8.63335 2.66669 16 2.66669C23.3667 2.66669 29.3334 8.63335 29.3334 16C29.3334 23.3667 23.3667 29.3334 16 29.3334C8.63335 29.3334 2.66669 23.3667 2.66669 16ZM4.88891 16C4.88891 22.1222 9.8778 27.1111 16 27.1111C22.1222 27.1111 27.1111 22.1222 27.1111 16C27.1111 9.8778 22.1222 4.88891 16 4.88891C9.8778 4.88891 4.88891 9.8778 4.88891 16ZM11.8889 9.66669H17.0556C19.8445 9.66669 22.1111 11.9334 22.1111 14.7222C22.1111 17.5111 19.8445 19.7778 17.0556 19.7778H14.1111V23.6667H11.8889V9.66669ZM14.1111 17.5556H17.0556C18.6222 17.5556 19.8889 16.2889 19.8889 14.7222C19.8889 13.1556 18.6222 11.8889 17.0556 11.8889H14.1111V17.5556Z" fill="#A8A8A8"/>
</svg>
