<svg width="20" height="20" viewBox="0 0 20 20" fill="none" xmlns="http://www.w3.org/2000/svg">
<path fill-rule="evenodd" clip-rule="evenodd" d="M14.6356 5.36449C13.3978 4.12671 11.7511 3.44449 10 3.44449C8.24891 3.44449 6.60225 4.12671 5.36336 5.36449L4.10669 4.10783C7.36113 0.853381 12.6378 0.853381 15.8922 4.10783C17.52 5.73449 18.3334 7.86783 18.3334 10C18.3334 11.2678 18.0434 12.5356 17.4678 13.6978C17.17 14.2989 16.7956 14.8712 16.3434 15.4012L12.8278 11.8856L14.2422 10.4712L16.1211 12.35C16.4056 11.61 16.5556 10.8167 16.5556 10C16.5556 8.24894 15.8734 6.60227 14.6356 5.36449ZM14.0079 15.1867L15.2734 16.4523C12.0001 19.1345 7.16341 18.9478 4.10786 15.8923C2.48008 14.2656 1.66675 12.1323 1.66675 10.0001C1.66675 9.02673 1.83786 8.0534 2.17675 7.12785C2.41564 6.47785 2.73786 5.85118 3.14341 5.26562L6.58341 8.70451L5.16897 10.119L3.60564 8.55562C3.50008 9.02451 3.44453 9.50784 3.44453 10.0001C3.44453 11.7512 4.12675 13.3978 5.36453 14.6356C6.6023 15.8734 8.24897 16.5556 10.0001 16.5556C11.4701 16.5556 12.8656 16.0734 14.0079 15.1867Z" fill="#A8A8A8"/>
</svg>
