<svg width="20" height="20" viewBox="0 0 20 20" fill="none" xmlns="http://www.w3.org/2000/svg">
<path fill-rule="evenodd" clip-rule="evenodd" d="M11.7667 10.7333C12.2222 11.1889 12.5 11.8111 12.5 12.5C12.5 13.8778 11.3778 15 10 15C8.62222 15 7.5 13.8778 7.5 12.5C7.5 11.8111 7.77778 11.1889 8.23333 10.7333L9 9.96667V2H11V9.96667L11.7667 10.7333ZM10 11.7889L9.64444 12.1444C9.57778 12.2111 9.5 12.3333 9.5 12.5C9.5 12.7778 9.72222 13 10 13C10.2778 13 10.5 12.7778 10.5 12.5C10.5 12.3222 10.4222 12.2111 10.3556 12.1444L10 11.7889ZM14 12.6667V10.6667H19V12.6667H16V13.0001C16 16.3112 13.3111 19.0001 10 19.0001C6.68889 19.0001 4 16.3112 4 13.0001V12.6667H1V10.6667H6V12.6667V13.0001C6 15.2112 7.78889 17.0001 10 17.0001C12.2111 17.0001 14 15.2112 14 13.0001V12.6667Z" fill="#3D3D3D"/>
</svg>
