<svg width="20" height="20" viewBox="0 0 20 20" fill="none" xmlns="http://www.w3.org/2000/svg">
<path fill-rule="evenodd" clip-rule="evenodd" d="M1.66699 9.99984C1.66699 5.39762 5.3981 1.6665 10.0003 1.6665C14.6025 1.6665 18.3337 5.39762 18.3337 9.99984C18.3337 14.6021 14.6025 18.3332 10.0003 18.3332C5.3981 18.3332 1.66699 14.6021 1.66699 9.99984ZM3.44477 9.99984C3.44477 13.6143 6.38588 16.5554 10.0003 16.5554C13.6148 16.5554 16.5559 13.6143 16.5559 9.99984C16.5559 6.38539 13.6148 3.44428 10.0003 3.44428C6.38588 3.44428 3.44477 6.38539 3.44477 9.99984ZM7.29586 9.37093L9.16698 11.2432L13.1214 7.2876L14.3792 8.54538L9.16698 13.7565L6.03809 10.6287L7.29586 9.37093Z" fill="#EF4B81"/>
</svg>
