<svg width="76" height="20" viewBox="0 0 76 20" fill="none" xmlns="http://www.w3.org/2000/svg">
<mask id="mask0" mask-type="alpha" maskUnits="userSpaceOnUse" x="0" y="0" width="76" height="20">
<rect width="76" height="20" fill="#C4C4C4"/>
</mask>
<g mask="url(#mask0)">
<path d="M65.7499 13H68.5499L71.9499 0.5H69.0499L67.7499 5.5H66.0499L65.8499 6.4H67.4499L65.7499 13Z" fill="#EF4B81"/>
<path d="M75.2499 0.5H72.3499L69.0499 13H71.8499L75.2499 0.5Z" fill="#EF4B81"/>
<path d="M65.5499 6.1L67.0499 0.5H65.0499H64.2499H58.3499L58.1499 1.4H64.0499L62.9499 5.5H57.0499L56.8499 6.4H62.8499C62.6499 7.4 61.6499 10.4 55.5499 11.3L55.4499 11.7C55.3499 11.6 63.8499 12.3 65.5499 6.1Z" fill="#EF4B81"/>
<path d="M72.3499 15.3C68.3499 19.5 65.7499 17.9 65.7499 17.9C64.7499 17.2 65.3499 14.9 65.4499 14.5L65.8499 13.1H63.0499V13.2C61.9499 17.4 54.2499 17.8 51.6499 17.9L56.2499 0.5H53.4499L49.7499 14.3C40.0499 20.8 39.3499 15.2 39.3499 15.2L40.8499 9.5H47.9499V8.6H41.0499L42.9499 1.3H49.7499L50.0499 0.5H43.2499H40.6499H40.3499L36.8499 13.4C36.3499 13.8 28.7499 18.4 23.7499 17.4C23.7499 17.4 22.2499 17 22.7499 15.4L23.4499 12.7H20.7499L19.6499 16.9C19.6499 16.9 18.9499 18.8 21.7499 19.1C22.1499 19.1 22.8499 19.2 22.8499 19.2C23.9499 19.2 24.5499 19.2 25.6499 18.9C29.6499 18 30.4499 17.9 36.7499 14L36.2499 15.7C35.8499 17.7 40.1499 18 40.1499 18C43.4499 18.4 48.0499 16 49.5499 14.9L48.4499 19.1H51.2499L51.4499 18.5C56.9499 18.3 60.8499 16.8 62.3499 15.4L62.0499 16.4C61.2499 19.4 65.5499 19.3 65.5499 19.3C70.2499 19.3 72.6499 15.7 72.6499 15.7L72.3499 15.3Z" fill="#EF4B81"/>
<path d="M24.7499 9C25.2499 10 26.1499 11 27.9499 10.4C29.9499 9.7 32.4499 8.1 33.3499 6.9L31.8499 12.2H34.5499L37.6499 0.5H34.9499L33.4499 6.3C32.6499 7.4 30.2499 9 28.3499 9.4C25.9499 9.9 26.5499 6 26.5499 6L28.0499 0.5H25.3499L23.8499 6.2C23.3499 8.2 21.7499 9.1 21.7499 9.1C19.9499 10.5 18.9499 10.2 18.2499 10L20.7499 0.6H18.0499L16.5499 6.4H14.8499C15.3499 3.4 14.5499 1.2 12.5499 0.7C9.54993 0 5.14993 3.4 2.64993 8.2C0.149932 13 0.549932 17.4 3.44993 18.1C6.24993 18.7 10.3499 15.7 12.8499 11.3H15.0499L12.9499 19.3H15.6499L18.0499 10.5C20.2499 11.3 23.5499 10.2 24.7499 9ZM10.5499 9.9C8.54993 13.7 5.94993 16.6 4.54993 16.3C3.24993 16 3.74993 12.7 5.64993 8.8C7.64993 5 10.2499 2.1 11.6499 2.4C12.9499 2.8 12.4499 6.1 10.5499 9.9ZM13.3499 10.5C13.9499 9.3 14.3499 8.2 14.6499 7.2H16.2499L15.3499 10.5H13.3499Z" fill="#EF4B81"/>
</g>
</svg>
