<svg width="32" height="32" viewBox="0 0 32 32" fill="none" xmlns="http://www.w3.org/2000/svg">
<path fill-rule="evenodd" clip-rule="evenodd" d="M2.66748 15.9944C2.66748 8.63358 8.63358 2.66748 15.9944 2.66748C23.3662 2.66748 29.3212 8.64465 29.3212 16.0054C29.3212 23.3662 23.3551 29.3323 15.9944 29.3323C8.63358 29.3323 2.66748 23.3551 2.66748 15.9944ZM4.88125 16.0054C4.88125 22.1265 9.86222 27.1185 15.9944 27.1185C22.1265 27.1185 27.1185 22.1265 27.1185 15.9944C27.1185 9.86222 22.1154 4.89232 15.9944 4.89232C9.87329 4.89232 4.88125 9.87329 4.88125 16.0054ZM11.4451 15.2195L14.6661 18.4295L21.2189 11.8878L22.7796 13.4485L14.6661 21.562L9.88437 16.7802L11.4451 15.2195Z" fill="#3D3D3D"/>
</svg>
