<svg width="20" height="18" viewBox="0 0 20 18" fill="none" xmlns="http://www.w3.org/2000/svg">
<path d="M14.7333 2.85553C15.5667 2.85553 16.3556 3.17775 16.9556 3.77775C17.5444 4.36664 17.8778 5.15553 17.8778 5.99997C17.8778 6.83331 17.5556 7.6222 16.9556 8.2222L10 15.1666L3.04444 8.2222C1.82222 6.99997 1.82222 5.01109 3.04444 3.77775C3.63333 3.18886 4.42222 2.85553 5.26667 2.85553C6.1 2.85553 6.88889 3.17775 7.48889 3.77775L10 6.28886L12.5111 3.77775C13.1 3.18886 13.8889 2.85553 14.7333 2.85553ZM14.7333 0.85553C13.4222 0.85553 12.1 1.35553 11.1 2.35553L10 3.45553L8.9 2.35553C7.9 1.35553 6.57778 0.85553 5.26667 0.85553C3.95556 0.85553 2.63333 1.35553 1.63333 2.35553C-0.377778 4.36664 -0.377778 7.61108 1.63333 9.6222L10 18L18.3667 9.63331C20.3778 7.6222 20.3778 4.37775 18.3667 2.36664C17.3667 1.36664 16.0444 0.85553 14.7333 0.85553Z" fill="#3D3D3D"/>
</svg>
