<svg width="24" height="24" viewBox="0 0 24 24" fill="none" xmlns="http://www.w3.org/2000/svg">
<path fill-rule="evenodd" clip-rule="evenodd" d="M21.6 7.97784C23.0667 8.77563 24 10.3047 24 11.9668C24 13.6288 23.0667 15.1579 21.7333 15.9557C22.2 17.5513 21.8 19.2798 20.6 20.4765C19.4 21.6731 17.6667 22.072 16.0667 21.6067C15.2667 23.0693 13.7333 24 12.0667 24C10.4 24 8.86667 23.0693 8.06667 21.6067C6.46667 22.072 4.73333 21.6731 3.53333 20.4765C2.33333 19.2798 1.93333 17.5513 2.4 15.9557C0.933333 15.1579 0 13.6288 0 11.9668C0 10.3047 0.933333 8.77563 2.4 7.97784C1.93333 6.44876 2.33333 4.65374 3.53333 3.52355C4.66667 2.32687 6.46667 1.92798 8 2.39335C8.8 0.930748 10.3333 0 12 0C13.6667 0 15.2 0.930748 16 2.39335C17.5333 1.92798 19.3333 2.32687 20.4667 3.45707C21.6667 4.65374 22.0667 6.38228 21.6 7.97784ZM19.8667 15.2244L20.5333 14.9585C21.8 14.4931 22.6667 13.2964 22.6667 11.9668C22.6667 10.6371 21.8 9.44045 20.5333 8.97507L19.8667 8.70915L20.2 8.04433C20.7333 6.84765 20.4667 5.38505 19.5333 4.4543C18.6 3.45707 17.1333 3.19114 15.9333 3.78948L15.2667 4.12189L15 3.45707C14.5333 2.19391 13.3333 1.32964 12 1.32964C10.6667 1.32964 9.46667 2.19391 8.93333 3.52355L8.66667 4.18837L8 3.85596C6.8 3.25762 5.33333 3.52355 4.4 4.4543C3.46667 5.38505 3.2 6.84765 3.8 8.04433L4.13333 8.70915L3.46667 8.97507C2.2 9.44045 1.33333 10.6371 1.33333 11.9668C1.33333 13.2964 2.2 14.4931 3.53333 14.9585L4.2 15.2244L3.86667 15.8892C3.26667 17.0859 3.53333 18.5485 4.46667 19.4792C5.4 20.4765 6.86667 20.7424 8.06667 20.1441L8.73333 19.8116L9 20.4765C9.46667 21.7396 10.6667 22.6039 12 22.6039C13.3333 22.6039 14.5333 21.7396 15.0667 20.4765L15.3333 19.8116L16 20.1441C17.2 20.6759 18.6667 20.41 19.6 19.4792C20.5333 18.5485 20.8 17.0859 20.2 15.8892L19.8667 15.2244ZM6.73338 12.5651L6.33338 11.9003C7.20005 11.7008 7.66672 11.1025 7.66672 10.4377H6.46672V9.70636H7.80005V9.04154H8.66672V9.70636H9.93338V10.4377H8.66672C8.73338 11.036 9.20005 11.5679 10.0667 11.8338L9.66672 12.4986C8.93338 12.3656 8.46672 11.9668 8.20005 11.4349C7.93338 11.9668 7.46672 12.3656 6.73338 12.5651ZM8.59992 12.4321V13.2964C9.13325 13.2964 9.59992 13.2299 10.0666 13.1634L10.1333 13.8282C8.86659 14.0942 7.39992 14.0942 6.33325 14.0942L6.19992 13.3628H7.73325V12.4321H8.59992ZM11.2666 9.04154H10.4V15.1579H11.2666V9.04154ZM16.2001 11.4349H16.7334V9.04154H17.5334V15.1579H16.7334V12.0997H16.2001V14.9584H15.4001V9.17451H16.2001V11.4349ZM13.6667 9.50694C12.8667 9.50694 12.3334 10.3712 12.3334 11.7008C12.3334 13.097 12.8667 13.8948 13.6667 13.8948C14.4667 13.8948 15 13.0305 15 11.7008C15 10.3712 14.4667 9.50694 13.6667 9.50694ZM13.6667 13.1635C13.3334 13.1635 13.1334 12.6981 13.1334 11.7673C13.1334 10.8366 13.3334 10.3712 13.6667 10.3712C14 10.3712 14.2 10.8366 14.2 11.7673C14.2 12.6981 14 13.1635 13.6667 13.1635Z" fill="#EF4B81"/>
</svg>
