<svg width="20" height="20" viewBox="0 0 20 20" fill="none" xmlns="http://www.w3.org/2000/svg">
<path fill-rule="evenodd" clip-rule="evenodd" d="M1 10C1 5.03333 5.03333 1 10 1C14.9667 1 19 5.03333 19 10C19 14.9667 14.9667 19 10 19C5.03333 19 1 14.9667 1 10ZM3 10C3 13.8556 6.14444 17 10 17C13.8556 17 17 13.8556 17 10C17 6.14444 13.8556 3 10 3C6.14444 3 3 6.14444 3 10ZM8.33313 7.91119C8.33313 8.59848 7.77597 9.15564 7.08868 9.15564C6.4014 9.15564 5.84424 8.59848 5.84424 7.91119C5.84424 7.2239 6.4014 6.66675 7.08868 6.66675C7.77597 6.66675 8.33313 7.2239 8.33313 7.91119ZM12.9109 9.15564C13.5982 9.15564 14.1554 8.59848 14.1554 7.91119C14.1554 7.2239 13.5982 6.66675 12.9109 6.66675C12.2237 6.66675 11.6665 7.2239 11.6665 7.91119C11.6665 8.59848 12.2237 9.15564 12.9109 9.15564ZM8 11C8 12.1 8.9 13 10 13C11.1 13 12 12.1 12 11H14C14 13.2111 12.2111 15 10 15C7.78889 15 6 13.2111 6 11H8Z" fill="#3D3D3D"/>
</svg>
