<svg width="32" height="32" viewBox="0 0 32 32" fill="none" xmlns="http://www.w3.org/2000/svg">
<path d="M22.3109 8.70001C23.5443 8.70001 24.711 9.17778 25.5887 10.0556C27.3887 11.8556 27.3887 14.8 25.5887 16.6L15.9998 26.1889L6.41094 16.6C4.61094 14.8 4.61094 11.8556 6.41094 10.0556C7.28872 9.17778 8.44427 8.70001 9.68872 8.70001C10.9332 8.70001 12.0887 9.17778 12.9665 10.0556L15.9998 13.0889L19.0332 10.0556C19.9109 9.1889 21.0776 8.70001 22.3109 8.70001ZM22.3109 6.47778C20.5554 6.47778 18.7998 7.14445 17.4665 8.4889L15.9998 9.95556L14.5332 8.4889C13.1998 7.15556 11.4443 6.47778 9.68872 6.47778C7.93316 6.47778 6.17761 7.14445 4.84427 8.4889C2.16649 11.1667 2.16649 15.5 4.84427 18.1778L15.9998 29.3334L27.1554 18.1778C29.8332 15.5 29.8332 11.1667 27.1554 8.4889C25.8221 7.15556 24.0665 6.47778 22.3109 6.47778Z" fill="#3D3D3D"/>
</svg>
