<svg width="24" height="24" viewBox="0 0 24 24" fill="none" xmlns="http://www.w3.org/2000/svg">
<path fill-rule="evenodd" clip-rule="evenodd" d="M0.972961 12C0.972961 18.0973 5.90269 23.027 12 23.027C18.0973 23.027 23.027 18.0973 23.027 12C23.027 5.90268 18.0973 0.972946 12 0.972946C5.90269 0.972946 0.972961 5.90268 0.972961 12ZM2.27026 12C2.27026 6.61619 6.61621 2.27024 12 2.27024C17.3838 2.27024 21.7297 6.61619 21.7297 12C21.7297 17.3838 17.3838 21.7297 12 21.7297C6.61621 21.7297 2.27026 17.3838 2.27026 12ZM10.4432 9.21083H11.2864V13.5568H10.4432V9.21083ZM8.62696 10.0541C8.62696 10.8325 9.01615 11.6108 9.98912 11.9352L9.59994 12.5838C8.95129 12.3243 8.49723 11.9352 8.23777 11.3514C7.97831 11.9352 7.52426 12.3892 6.81075 12.6487L6.35669 12C7.32966 11.6757 7.78372 10.8325 7.78372 10.0541V9.47029H8.62696V10.0541ZM8.17291 13.1027V14.3352H11.481V15.0487H7.32966V13.1027H8.17291ZM16.3459 12.3892V9.14597H17.1891V12.3892H16.3459ZM13.2972 15.1135V12.6487H14.1405V13.2325H16.4107V12.6487H17.254V15.1135H13.2972ZM16.4107 13.8811H14.1405V14.4H16.4107V13.8811ZM12.3891 10.8325C12.3891 9.98921 13.1026 9.40543 14.0107 9.40543C14.9189 9.40543 15.6324 9.98921 15.6324 10.8325C15.6324 11.6757 14.9189 12.2595 14.0107 12.2595C13.1026 12.2595 12.3891 11.6757 12.3891 10.8325ZM14.7891 10.8325C14.7891 10.3784 14.4648 10.1189 14.0107 10.1189C13.5567 10.1189 13.2324 10.3784 13.2324 10.8325C13.2324 11.2865 13.5567 11.546 14.0107 11.546C14.4648 11.546 14.7891 11.2865 14.7891 10.8325Z" fill="#EF4B81"/>
</svg>
