<svg width="32" height="32" viewBox="0 0 32 32" fill="none" xmlns="http://www.w3.org/2000/svg">
<path fill-rule="evenodd" clip-rule="evenodd" d="M16 4C22.6222 4 28 9.37778 28 16C28 19.3111 26.6556 22.3111 24.4889 24.4889L28 28H16C9.37778 28 4 22.6222 4 16C4 9.37778 9.37778 4 16 4ZM6 16C6 21.5111 10.4889 26 16 26V25.9889H23.1667L21.5111 24.3333C22.0667 23.9667 22.5889 23.5444 23.0667 23.0667C24.8778 21.2556 26 18.7556 26 16C26 10.4889 21.5111 6 16 6C10.4889 6 6 10.4889 6 16ZM10.6667 14.6667C10.6667 11.7223 13.0556 9.33337 16 9.33337C18.9444 9.33337 21.3333 11.7223 21.3333 14.6667C21.3333 17.2667 19.4667 19.4334 17 19.9V22.6667H15V18H16C17.8333 18 19.3333 16.5 19.3333 14.6667C19.3333 12.8334 17.8333 11.3334 16 11.3334C14.1667 11.3334 12.6667 12.8334 12.6667 14.6667H10.6667Z" fill="#3D3D3D"/>
</svg>
