<svg width="49" height="49" viewBox="0 0 49 49" fill="none" xmlns="http://www.w3.org/2000/svg">
<circle cx="24.0034" cy="24.0033" r="19" transform="rotate(-180 24.0034 24.0033)" fill="#3A5DAE"/>
<mask id="mask0" mask-type="alpha" maskUnits="userSpaceOnUse" x="5" y="5" width="39" height="39">
<circle cx="24.0034" cy="24.0033" r="19" transform="rotate(-180 24.0034 24.0033)" fill="#3A5DAE"/>
</mask>
<g mask="url(#mask0)">
<path d="M16.8033 44.4033H45.6034L45.6034 10.8033H20.4034C18.4167 10.8033 16.8033 12.4167 16.8033 14.4033L16.8033 44.4033Z" fill="#00AB8E"/>
<path d="M30.0034 28.8033L45.6034 28.8033V25.2033H30.0034V28.8033Z" fill="white"/>
<path d="M21.6034 38.4033H45.6034V34.8033H21.6034V38.4033Z" fill="white"/>
</g>
<path d="M18.7437 24.6859L24.6833 18.7462L11.9555 6.01842L6.01588 11.9581L18.7437 24.6859Z" fill="#FAE053"/>
<path d="M6.01469 11.9581L11.9543 6.01843L10.2573 4.3214L4.31766 10.261L6.01469 11.9581Z" fill="#A8A8A8"/>
<path d="M0.549994 3.84338L3.84333 0.550046C4.57667 -0.183288 5.75001 -0.183288 6.48334 0.550046L10.2567 4.32338L4.32334 10.2567L0.549994 6.48338C-0.183341 5.76338 -0.183341 4.57671 0.549994 3.84338Z" fill="#EF4B81"/>
<path d="M18.75 24.6833L24.6834 18.75L26.8034 26.8033L18.75 24.6833Z" fill="white"/>
<path d="M22.7767 25.75L25.75 22.7767L26.8034 26.8033L22.7767 25.75Z" fill="#3D3D3D"/>
</svg>
