<svg width="17" height="18" viewBox="0 0 17 18" fill="none" xmlns="http://www.w3.org/2000/svg">
<path fill-rule="evenodd" clip-rule="evenodd" d="M13.1358 4.36449C11.898 3.12671 10.2514 2.44449 8.50027 2.44449C6.74916 2.44449 5.10249 3.12671 3.8636 4.36449L2.60693 3.10783C5.86138 -0.146619 11.138 -0.146619 14.3925 3.10783C16.0203 4.73449 16.8336 6.86783 16.8336 9.00005C16.8336 10.2678 16.5436 11.5356 15.968 12.6978C15.6703 13.2989 15.2958 13.8712 14.8436 14.4012L11.328 10.8856L12.7425 9.47116L14.6214 11.35C14.9058 10.61 15.0558 9.81672 15.0558 9.00005C15.0558 7.24894 14.3736 5.60227 13.1358 4.36449ZM12.5081 14.1867L13.7737 15.4523C10.5003 18.1345 5.66366 17.9478 2.6081 14.8923C0.980326 13.2656 0.166992 11.1323 0.166992 9.00007C0.166992 8.02673 0.338103 7.0534 0.676992 6.12785C0.915881 5.47785 1.2381 4.85118 1.64366 4.26562L5.08366 7.70451L3.66921 9.11896L2.10588 7.55562C2.00033 8.02451 1.94477 8.50784 1.94477 9.00007C1.94477 10.7512 2.62699 12.3978 3.86477 13.6356C5.10255 14.8734 6.74921 15.5556 8.50033 15.5556C9.97032 15.5556 11.3659 15.0734 12.5081 14.1867Z" fill="white"/>
</svg>
