<svg width="20" height="20" viewBox="0 0 20 20" fill="none" xmlns="http://www.w3.org/2000/svg">
<path fill-rule="evenodd" clip-rule="evenodd" d="M11 0.0500001C15.7244 0.518889 19.4811 4.27556 19.95 9C19.9833 9.32889 20 9.66222 20 10C20 10.3378 19.9822 10.6711 19.95 11C19.4811 15.7244 15.7244 19.4811 11 19.95C10.6711 19.9833 10.3378 20 10 20C9.66222 20 9.32889 19.9822 9 19.95C4.27556 19.4811 0.518889 15.7244 0.0500001 11C0.0166667 10.6711 0 10.3378 0 10C0 9.66222 0.0177779 9.32889 0.0500001 9C0.518889 4.27556 4.27556 0.518889 9 0.0500001C9.32889 0.0166667 9.66222 0 10 0C10.3378 0 10.6711 0.0177779 11 0.0500001ZM11 14V17.9356C14.6122 17.4822 17.4822 14.6122 17.9356 11H14V9H17.9356C17.4822 5.38667 14.6122 2.51778 11 2.06444V6H9V2.06444C5.38778 2.51778 2.51778 5.38778 2.06444 9H6V11H2.06444C2.51778 14.6133 5.38778 17.4822 9 17.9356V14H11ZM12 10C12 11.1046 11.1046 12 10 12C8.89543 12 8 11.1046 8 10C8 8.89543 8.89543 8 10 8C11.1046 8 12 8.89543 12 10Z" fill="#3D3D3D"/>
</svg>
