<svg width="36" height="36" viewBox="0 0 36 36" fill="none" xmlns="http://www.w3.org/2000/svg">
<path d="M35 18C35 15.4887 33.4084 13.3493 31.1736 12.5441C32.1823 10.3959 31.8033 7.75208 30.0256 5.97437C28.2479 4.19667 25.6041 3.81766 23.4559 4.82642C22.6507 2.59158 20.5113 1 18 1C15.4887 1 13.3493 2.59158 12.5441 4.82642C10.3959 3.81766 7.75208 4.19667 5.97437 5.97437C4.19667 7.75208 3.81766 10.3959 4.82643 12.5441C2.59158 13.3493 1 15.4887 1 18C1 20.5113 2.59158 22.6507 4.82642 23.4559C3.81766 25.6041 4.19667 28.2479 5.97437 30.0256C7.75208 31.8033 10.3959 32.1823 12.5441 31.1736C13.3493 33.4084 15.4887 35 18 35C20.5113 35 22.6507 33.4084 23.4559 31.1736C25.6041 32.1823 28.2479 31.8033 30.0256 30.0256C31.8062 28.2451 32.182 25.6089 31.1713 23.4567C33.4074 22.6521 35 20.5121 35 18Z" stroke="#EF4B81" stroke-width="2"/>
</svg>
